<svg width="1600" height="2200" viewBox="0 0 1600 2200" fill="none" xmlns="http://www.w3.org/2000/svg">
<rect width="1600" height="2200" fill="#060709"/>
<g opacity="0.9" filter="url(#blur1)">
<ellipse cx="370" cy="380" rx="330" ry="260" fill="#29314F"/>
<ellipse cx="1210" cy="520" rx="420" ry="300" fill="#1A2237"/>
<ellipse cx="780" cy="940" rx="540" ry="320" fill="#111726"/>
</g>
<g opacity="0.55" filter="url(#blur2)">
<path d="M-80 1230C180 1090 330 980 600 1030C850 1080 970 1260 1240 1280C1430 1295 1525 1220 1680 1170V2200H-80V1230Z" fill="#0E1320"/>
<path d="M-120 1420C170 1310 350 1280 520 1360C710 1450 800 1630 1090 1650C1310 1665 1440 1560 1720 1450V2200H-120V1420Z" fill="#090C13"/>
</g>
<g opacity="0.35">
<path d="M0 0H1600V2200H0V0Z" fill="url(#fade)"/>
</g>
<defs>
<filter id="blur1" x="-160" y="-120" width="1920" height="1550" filterUnits="userSpaceOnUse" color-interpolation-filters="sRGB">
<feGaussianBlur stdDeviation="90"/>
</filter>
<filter id="blur2" x="-300" y="820" width="2220" height="1580" filterUnits="userSpaceOnUse" color-interpolation-filters="sRGB">
<feGaussianBlur stdDeviation="56"/>
</filter>
<linearGradient id="fade" x1="800" y1="0" x2="800" y2="2200" gradientUnits="userSpaceOnUse">
<stop offset="0" stop-color="#07080A" stop-opacity="0.02"/>
<stop offset="0.55" stop-color="#050609" stop-opacity="0.38"/>
<stop offset="1" stop-color="#020202" stop-opacity="0.92"/>
</linearGradient>
</defs>
</svg>
